<svg xmlns="http://www.w3.org/2000/svg" xmlns:xlink="http://www.w3.org/1999/xlink" width="50" zoomAndPan="magnify" viewBox="0 0 375 374.999991" height="50" preserveAspectRatio="xMidYMid meet" version="1.0">
	<defs>
		<clipPath id="36036c4b7c">
			<path d="M 0.234375 0 L 374.484375 0 L 374.484375 375 L 0.234375 375 Z M 0.234375 0 " clip-rule="nonzero" />
		</clipPath>
	</defs>
	<rect x="-37.5" width="450" fill="#ffffff" y="-37.499999" height="449.999989" fill-opacity="1" />
	<rect x="-37.5" width="450" fill="#ffffff" y="-37.499999" height="449.999989" fill-opacity="1" />
	<path fill="#27aae1" d="M 198.773438 284.421875 L 268.949219 133.472656 L 154.265625 214.316406 Z M 198.773438 284.421875 " fill-opacity="1" fill-rule="nonzero" />
	<path fill="#27aae1" d="M 78.984375 176.484375 C 97.269531 183.066406 116.152344 189.867188 134.691406 196.710938 C 135.722656 197.089844 136.070312 197.050781 136.082031 197.046875 C 136.097656 197.046875 136.457031 196.988281 137.398438 196.324219 C 168.0625 174.628906 199.199219 152.71875 229.738281 131.25 L 78.980469 176.484375 Z M 78.984375 176.484375 " fill-opacity="1" fill-rule="nonzero" />
	<path fill="#27aae1" d="M 144.234375 260.800781 L 151.351562 254.761719 L 145.828125 246.074219 Z M 144.234375 260.800781 " fill-opacity="1" fill-rule="nonzero" />
	<g clip-path="url(#36036c4b7c)">
		<path fill="#27aae1" d="M 187.4375 0 C 187.277344 0 187.109375 0 186.949219 0 C 138.335938 0 90.4375 20.113281 55.46875 55.234375 C 19.757812 91.097656 0.265625 138.890625 0.585938 189.8125 C 1.222656 291.980469 85.285156 375.003906 188.019531 375.003906 C 188.109375 375.003906 188.191406 375.003906 188.28125 375.003906 C 237.824219 374.9375 284.515625 355.390625 319.757812 319.972656 C 355.082031 284.46875 374.453125 237.5 374.308594 187.71875 C 374.007812 84.496094 290.175781 0.285156 187.4375 0 Z M 308.304688 105.332031 C 293.03125 138.40625 277.394531 171.980469 262.273438 204.449219 C 256.558594 216.722656 250.648438 229.410156 244.84375 241.890625 C 240.984375 250.1875 237.074219 258.632812 233.292969 266.800781 C 226.378906 281.730469 219.234375 297.164062 212.109375 312.3125 C 211.425781 313.769531 207.671875 321.039062 200.953125 321.351562 C 200.804688 321.359375 200.652344 321.363281 200.503906 321.363281 C 194.175781 321.363281 189.785156 315.128906 188.953125 313.851562 C 182.539062 304 176.152344 293.921875 169.980469 284.171875 C 168.203125 281.367188 166.375 278.484375 164.554688 275.617188 C 164.144531 275.96875 163.503906 276.511719 162.722656 277.171875 C 145.304688 291.945312 142.601562 293.578125 140.445312 294.6875 C 135.367188 297.296875 128.433594 300.867188 123.960938 298.039062 C 122.984375 297.421875 120.546875 295.503906 119.835938 281.019531 C 119.667969 277.566406 119.394531 269.292969 121.160156 251.800781 C 121.472656 248.695312 122.003906 244.238281 123.046875 235.316406 C 123.683594 229.894531 124.328125 224.539062 124.980469 219.230469 C 105.128906 212.1875 85.015625 204.902344 65.558594 197.859375 C 56.644531 194.632812 47.429688 191.296875 38.363281 188.027344 C 36.207031 187.25 33.929688 186.347656 31.941406 184.675781 C 28.445312 181.738281 27.132812 177.332031 28.4375 172.890625 C 29.890625 167.945312 34.925781 164.058594 39.148438 162.773438 C 99 144.570312 157.824219 126.886719 207.472656 111.992188 C 238.660156 102.632812 266.492188 94.40625 292.558594 86.828125 C 294.515625 86.261719 296.925781 86.015625 299.175781 86.15625 C 304.296875 86.472656 306.804688 88.746094 308.007812 90.601562 C 310.855469 94.992188 310.15625 101.3125 308.304688 105.332031 Z M 308.304688 105.332031 " fill-opacity="1" fill-rule="nonzero" />
	</g>
	<path fill="#f1f2f2" d="M 299.179688 86.160156 C 296.929688 86.019531 294.515625 86.265625 292.5625 86.832031 C 266.496094 94.410156 238.664062 102.636719 207.476562 111.996094 C 157.824219 126.890625 99 144.574219 39.148438 162.777344 C 34.925781 164.0625 29.890625 167.949219 28.441406 172.894531 C 27.136719 177.332031 28.445312 181.738281 31.945312 184.679688 C 33.929688 186.351562 36.207031 187.253906 38.367188 188.03125 C 47.433594 191.300781 56.648438 194.636719 65.558594 197.863281 C 85.019531 204.910156 105.132812 212.191406 124.980469 219.234375 C 124.328125 224.542969 123.6875 229.898438 123.050781 235.320312 C 122.003906 244.238281 121.476562 248.699219 121.164062 251.804688 C 119.398438 269.296875 119.671875 277.570312 119.839844 281.023438 C 120.550781 295.507812 122.988281 297.421875 123.960938 298.039062 C 128.4375 300.871094 135.371094 297.300781 140.449219 294.691406 C 142.601562 293.582031 145.308594 291.949219 162.726562 277.175781 C 163.503906 276.515625 164.144531 275.972656 164.558594 275.621094 C 166.378906 278.488281 168.203125 281.371094 169.984375 284.175781 C 176.15625 293.925781 182.539062 304.003906 188.957031 313.855469 C 189.789062 315.132812 194.175781 321.367188 200.507812 321.367188 C 200.65625 321.367188 200.804688 321.363281 200.957031 321.355469 C 207.675781 321.042969 211.425781 313.773438 212.113281 312.316406 C 219.234375 297.167969 226.382812 281.734375 233.292969 266.804688 C 237.074219 258.636719 240.988281 250.191406 244.84375 241.894531 C 250.652344 229.414062 256.558594 216.726562 262.273438 204.453125 C 277.394531 171.984375 293.03125 138.410156 308.308594 105.335938 C 310.164062 101.320312 310.859375 94.996094 308.011719 90.605469 C 306.808594 88.753906 304.300781 86.480469 299.179688 86.160156 Z M 137.398438 196.324219 C 136.457031 196.988281 136.097656 197.046875 136.082031 197.046875 C 136.070312 197.050781 135.722656 197.089844 134.691406 196.710938 C 116.152344 189.867188 97.269531 183.066406 78.984375 176.484375 L 229.742188 131.25 C 199.199219 152.71875 168.066406 174.628906 137.402344 196.324219 Z M 144.234375 260.804688 L 145.828125 246.074219 L 151.351562 254.761719 Z M 198.773438 284.421875 L 154.265625 214.316406 L 268.949219 133.472656 Z M 198.773438 284.421875 " fill-opacity="1" fill-rule="nonzero" />
</svg>
